<svg version="1.1" id="Layer_1" xmlns="http://www.w3.org/2000/svg" xmlns:xlink="http://www.w3.org/1999/xlink" x="0px" y="0px"
	 width="100%" viewBox="0 0 533 533" enable-background="new 0 0 533 533" xml:space="preserve">
<path fill="#FFFFFF" opacity="1.000000" stroke="none" 
	d="
M534.000000,466.000000 
	C534.000000,488.654938 534.000000,511.309845 534.000000,533.982422 
	C356.437103,533.982422 178.874176,533.982422 1.000000,533.982422 
	C1.000000,452.979370 1.000000,371.958344 1.467785,290.501160 
	C23.391344,290.349213 44.850471,290.481720 66.302048,290.955994 
	C93.360077,291.554169 117.135406,301.238464 138.299377,317.769012 
	C141.623169,320.365112 144.793442,323.157806 148.541306,326.281891 
	C148.763641,324.780823 148.949478,324.010986 148.981781,323.234772 
	C149.422577,312.642426 151.730286,302.432404 156.597229,293.053131 
	C171.628311,264.086182 195.682846,248.868835 228.260452,248.149918 
	C253.896378,247.584213 279.554993,247.979645 305.202911,248.085312 
	C309.999023,248.105057 314.848022,248.431519 319.578094,249.199081 
	C350.035767,254.141617 375.709412,278.128601 382.869537,308.401184 
	C384.248169,314.229919 384.809509,320.251984 385.752808,326.215881 
	C386.114929,326.020813 386.455048,325.921997 386.680237,325.704285 
	C411.045959,302.147766 440.587891,291.089752 474.062500,290.183228 
	C492.535828,289.682983 511.034119,290.148346 529.520203,290.031342 
	C532.580750,290.011993 533.258118,291.424072 533.049377,294.437378 
	C533.025085,318.261963 533.040405,341.616089 533.031738,365.441345 
	C533.012207,387.602325 533.016785,409.292145 533.011597,431.452393 
	C533.001160,441.559631 532.951904,451.196930 533.045044,460.832855 
	C533.061707,462.558136 533.666626,464.277771 534.000000,466.000000 
M229.518219,383.026825 
	C216.168976,375.749847 205.754517,365.970398 199.479095,351.612274 
	C196.287140,344.309113 188.886932,340.668274 181.027832,339.344604 
	C171.160080,337.682587 163.951584,346.193756 166.901459,355.801422 
	C169.879578,365.501099 175.759552,373.169800 183.876068,379.862854 
	C184.999481,381.327271 185.836792,383.220551 187.290253,384.190247 
	C203.030640,394.691559 223.049026,394.345612 239.427383,383.528931 
	C242.748764,381.335388 246.024094,378.909637 249.651276,377.369690 
	C265.316193,370.719147 280.095673,372.629944 294.030914,382.394867 
	C311.407166,394.571045 333.138885,395.041901 348.615814,383.613251 
	C349.771149,382.760101 350.099030,380.786407 350.811584,379.333618 
	C349.327148,379.557861 347.554169,379.333069 346.401611,380.073730 
	C329.219543,391.116089 312.395172,389.677704 296.036224,378.510162 
	C277.705627,365.996674 257.084351,365.964294 238.744217,378.660278 
	C236.037033,380.534393 232.973083,381.893158 229.518219,383.026825 
M237.196762,275.497955 
	C233.009262,279.693939 228.072556,283.376831 224.779480,288.185333 
	C216.077255,300.892242 220.449829,315.659637 234.417999,322.197998 
	C244.487900,326.911591 254.679733,331.370911 264.901123,335.747620 
	C266.345734,336.366211 268.499664,336.415283 269.930878,335.804230 
	C280.309570,331.373108 290.614868,326.766052 300.886536,322.089752 
	C307.633728,319.018005 311.463806,313.562439 314.107361,306.679749 
	C318.895172,294.214386 302.221405,272.648529 288.447449,272.835419 
	C274.464630,273.025177 260.475250,272.755615 246.493515,272.982269 
	C243.606583,273.029053 240.740738,274.376526 237.196762,275.497955 
z"/>
<path fill="#EED1AF" opacity="1.000000" stroke="none" 
	d="
M533.088989,293.966919 
	C533.258118,291.424072 532.580750,290.011993 529.520203,290.031342 
	C511.034119,290.148346 492.535828,289.682983 474.062500,290.183228 
	C440.587891,291.089752 411.045959,302.147766 386.680237,325.704285 
	C386.455048,325.921997 386.114929,326.020813 385.752808,326.215881 
	C384.809509,320.251984 384.248169,314.229919 382.869537,308.401184 
	C375.709412,278.128601 350.035767,254.141617 319.578094,249.199081 
	C314.848022,248.431519 309.999023,248.105057 305.202911,248.085312 
	C279.554993,247.979645 253.896378,247.584213 228.260452,248.149918 
	C195.682846,248.868835 171.628311,264.086182 156.597229,293.053131 
	C151.730286,302.432404 149.422577,312.642426 148.981781,323.234772 
	C148.949478,324.010986 148.763641,324.780823 148.541306,326.281891 
	C144.793442,323.157806 141.623169,320.365112 138.299377,317.769012 
	C117.135406,301.238464 93.360077,291.554169 66.302048,290.955994 
	C44.850471,290.481720 23.391344,290.349213 1.467785,290.032471 
	C1.000000,193.704422 1.000000,97.408836 1.000000,1.056630 
	C178.559265,1.056630 356.118561,1.056630 534.000000,1.056630 
	C534.000000,98.353989 534.000000,195.708344 533.771973,293.529785 
	C533.544006,293.996918 533.088989,293.966919 533.088989,293.966919 
M93.961823,181.578979 
	C75.174767,180.454147 57.415485,183.632462 41.975220,195.057114 
	C30.167458,203.794022 23.856178,215.478165 26.188652,230.495407 
	C28.021711,242.297241 34.985260,251.217255 44.286083,258.235168 
	C63.801350,272.960419 86.102440,277.152649 109.907089,274.506897 
	C121.958153,273.167480 133.248993,269.243011 143.090073,261.894592 
	C151.202133,255.837265 157.243744,248.244034 159.042145,238.007812 
	C161.863525,221.948990 154.656891,209.837006 142.994537,199.985016 
	C129.171951,188.308090 112.728340,183.009842 93.961823,181.578979 
M392.191559,191.686707 
	C386.140869,196.313843 379.305359,200.209244 374.183807,205.702652 
	C357.514008,223.582718 359.997559,247.023422 379.543152,261.683960 
	C382.191132,263.670135 385.038879,265.481812 388.010803,266.929565 
	C408.957153,277.133392 430.648438,277.563965 452.668304,271.235596 
	C467.744354,266.902832 480.909027,259.377472 490.125946,246.249161 
	C501.087524,230.635880 499.580383,212.100296 485.553436,199.264908 
	C480.036194,194.216324 473.281158,189.859024 466.323853,187.164597 
	C441.376495,177.502975 416.758148,179.863235 392.191559,191.686707 
M173.067017,150.509796 
	C172.805969,149.555710 172.650406,148.556992 172.268234,147.654190 
	C165.488525,131.639481 143.303452,122.327362 125.467789,127.986046 
	C109.678284,132.995544 105.421257,146.166260 115.294312,159.461472 
	C124.688942,172.112411 149.082001,177.714584 162.890930,170.392609 
	C170.589020,166.310822 174.720047,158.672821 173.067017,150.509796 
M380.170685,130.489120 
	C375.601929,134.009415 370.404205,136.958755 366.588318,141.162460 
	C357.061401,151.657547 361.121613,166.456070 374.498077,171.275787 
	C390.906158,177.187805 405.455231,172.893021 417.663208,161.523376 
	C430.566101,149.506592 426.230438,133.393692 409.467346,127.924889 
	C399.539886,124.686142 390.195251,126.802444 380.170685,130.489120 
z"/>
<path fill="#F2DDC4" opacity="1.000000" stroke="none" 
	d="
M533.049377,294.437378 
	C533.088989,293.966919 533.544006,293.996918 533.771973,293.998474 
	C534.000000,317.354218 534.000000,340.708466 533.763794,364.528839 
	C533.527527,364.994995 533.055725,364.970215 533.055725,364.970215 
	C533.040405,341.616089 533.025085,318.261963 533.049377,294.437378 
z"/>
<path fill="#F7E9D9" opacity="1.000000" stroke="none" 
	d="
M533.031738,365.441345 
	C533.055725,364.970215 533.527527,364.994995 533.763794,364.997498 
	C534.000000,386.687561 534.000000,408.375122 533.755249,430.529541 
	C533.510559,430.996429 533.021362,430.981995 533.021362,430.981995 
	C533.016785,409.292145 533.012207,387.602325 533.031738,365.441345 
z"/>
<path fill="#FBF4EB" opacity="1.000000" stroke="none" 
	d="
M533.011597,431.452393 
	C533.021362,430.981995 533.510559,430.996429 533.755249,430.998230 
	C534.000000,442.354218 534.000000,453.708466 534.000000,465.531342 
	C533.666626,464.277771 533.061707,462.558136 533.045044,460.832855 
	C532.951904,451.196930 533.001160,441.559631 533.011597,431.452393 
z"/>
<path fill="#251A17" opacity="1.000000" stroke="none" 
	d="
M237.530975,275.311249 
	C240.740738,274.376526 243.606583,273.029053 246.493515,272.982269 
	C260.475250,272.755615 274.464630,273.025177 288.447449,272.835419 
	C302.221405,272.648529 318.895172,294.214386 314.107361,306.679749 
	C311.463806,313.562439 307.633728,319.018005 300.886536,322.089752 
	C290.614868,326.766052 280.309570,331.373108 269.930878,335.804230 
	C268.499664,336.415283 266.345734,336.366211 264.901123,335.747620 
	C254.679733,331.370911 244.487900,326.911591 234.417999,322.197998 
	C220.449829,315.659637 216.077255,300.892242 224.779480,288.185333 
	C228.072556,283.376831 233.009262,279.693939 237.530975,275.311249 
M283.278625,286.145569 
	C288.198364,288.978546 293.242035,290.728546 299.230774,288.428772 
	C295.661469,284.166260 287.732880,281.563141 283.650452,283.148712 
	C283.097229,283.363617 283.006439,284.769135 283.278625,286.145569 
z"/>
<path fill="#BE3D46" opacity="1.000000" stroke="none" 
	d="
M183.925507,379.127075 
	C175.759552,373.169800 169.879578,365.501099 166.901459,355.801422 
	C163.951584,346.193756 171.160080,337.682587 181.027832,339.344604 
	C188.886932,340.668274 196.287140,344.309113 199.479095,351.612274 
	C205.754517,365.970398 216.168976,375.749847 229.507721,383.452942 
	C215.366913,389.609528 201.867340,388.575989 188.928543,380.316132 
	C187.563950,379.444977 185.607422,379.501129 183.925507,379.127075 
z"/>
<path fill="#302422" opacity="1.000000" stroke="none" 
	d="
M183.900787,379.494965 
	C185.607422,379.501129 187.563950,379.444977 188.928543,380.316132 
	C201.867340,388.575989 215.366913,389.609528 229.785706,383.684723 
	C232.973083,381.893158 236.037033,380.534393 238.744217,378.660278 
	C257.084351,365.964294 277.705627,365.996674 296.036224,378.510162 
	C312.395172,389.677704 329.219543,391.116089 346.401611,380.073730 
	C347.554169,379.333069 349.327148,379.557861 350.811584,379.333618 
	C350.099030,380.786407 349.771149,382.760101 348.615814,383.613251 
	C333.138885,395.041901 311.407166,394.571045 294.030914,382.394867 
	C280.095673,372.629944 265.316193,370.719147 249.651276,377.369690 
	C246.024094,378.909637 242.748764,381.335388 239.427383,383.528931 
	C223.049026,394.345612 203.030640,394.691559 187.290253,384.190247 
	C185.836792,383.220551 184.999481,381.327271 183.900787,379.494965 
z"/>
<path fill="#241916" opacity="1.000000" stroke="none" 
	d="
M94.415344,181.633179 
	C112.728340,183.009842 129.171951,188.308090 142.994537,199.985016 
	C154.656891,209.837006 161.863525,221.948990 159.042145,238.007812 
	C157.243744,248.244034 151.202133,255.837265 143.090073,261.894592 
	C133.248993,269.243011 121.958153,273.167480 109.907089,274.506897 
	C86.102440,277.152649 63.801350,272.960419 44.286083,258.235168 
	C34.985260,251.217255 28.021711,242.297241 26.188652,230.495407 
	C23.856178,215.478165 30.167458,203.794022 41.975220,195.057114 
	C57.415485,183.632462 75.174767,180.454147 94.415344,181.633179 
M129.868073,203.726807 
	C127.442757,197.417297 121.252853,195.411591 118.038109,200.168839 
	C116.806908,201.990799 116.377151,205.507065 117.334511,207.331985 
	C118.297554,209.167755 121.388138,210.728409 123.637566,210.860748 
	C127.474464,211.086487 129.369324,208.174164 129.868073,203.726807 
z"/>
<path fill="#241916" opacity="1.000000" stroke="none" 
	d="
M392.503113,191.484329 
	C416.758148,179.863235 441.376495,177.502975 466.323853,187.164597 
	C473.281158,189.859024 480.036194,194.216324 485.553436,199.264908 
	C499.580383,212.100296 501.087524,230.635880 490.125946,246.249161 
	C480.909027,259.377472 467.744354,266.902832 452.668304,271.235596 
	C430.648438,277.563965 408.957153,277.133392 388.010803,266.929565 
	C385.038879,265.481812 382.191132,263.670135 379.543152,261.683960 
	C359.997559,247.023422 357.514008,223.582718 374.183807,205.702652 
	C379.305359,200.209244 386.140869,196.313843 392.503113,191.484329 
M395.873840,209.842102 
	C399.125793,211.835281 402.699951,211.937759 404.658142,208.727356 
	C405.932587,206.637985 406.280731,202.771179 405.144958,200.788315 
	C404.145111,199.042770 400.384888,197.818237 398.061432,198.108185 
	C392.978729,198.742432 391.822174,204.203400 395.873840,209.842102 
z"/>
<path fill="#FFFFFE" opacity="1.000000" stroke="none" 
	d="
M173.144745,150.900055 
	C174.720047,158.672821 170.589020,166.310822 162.890930,170.392609 
	C149.082001,177.714584 124.688942,172.112411 115.294312,159.461472 
	C105.421257,146.166260 109.678284,132.995544 125.467789,127.986046 
	C143.303452,122.327362 165.488525,131.639481 172.268234,147.654190 
	C172.650406,148.556992 172.805969,149.555710 173.144745,150.900055 
z"/>
<path fill="#FFFFFE" opacity="1.000000" stroke="none" 
	d="
M380.521057,130.331711 
	C390.195251,126.802444 399.539886,124.686142 409.467346,127.924889 
	C426.230438,133.393692 430.566101,149.506592 417.663208,161.523376 
	C405.455231,172.893021 390.906158,177.187805 374.498077,171.275787 
	C361.121613,166.456070 357.061401,151.657547 366.588318,141.162460 
	C370.404205,136.958755 375.601929,134.009415 380.521057,130.331711 
z"/>
<path fill="#F4F3F3" opacity="1.000000" stroke="none" 
	d="
M282.990082,285.884460 
	C283.006439,284.769135 283.097229,283.363617 283.650452,283.148712 
	C287.732880,281.563141 295.661469,284.166260 299.230774,288.428772 
	C293.242035,290.728546 288.198364,288.978546 282.990082,285.884460 
z"/>
<path fill="#F8F8F8" opacity="1.000000" stroke="none" 
	d="
M129.885559,204.111618 
	C129.369324,208.174164 127.474464,211.086487 123.637566,210.860748 
	C121.388138,210.728409 118.297554,209.167755 117.334511,207.331985 
	C116.377151,205.507065 116.806908,201.990799 118.038109,200.168839 
	C121.252853,195.411591 127.442757,197.417297 129.885559,204.111618 
z"/>
<path fill="#F6F5F5" opacity="1.000000" stroke="none" 
	d="
M395.571014,209.588623 
	C391.822174,204.203400 392.978729,198.742432 398.061432,198.108185 
	C400.384888,197.818237 404.145111,199.042770 405.144958,200.788315 
	C406.280731,202.771179 405.932587,206.637985 404.658142,208.727356 
	C402.699951,211.937759 399.125793,211.835281 395.571014,209.588623 
z"/>
</svg>